<?xml version="1.0" encoding="UTF-8" standalone="no"?>
<!-- Created with Inkscape (http://www.inkscape.org/) -->

<svg
   version="1.1"
   id="svg2"
   width="48"
   height="127.4"
   viewBox="0 0 48 127.4"
   xmlns="http://www.w3.org/2000/svg"
   xmlns:svg="http://www.w3.org/2000/svg">
  <defs
     id="defs6" />
  <g
     id="g8"
     style="display:inline">
    <path
       style="fill:#FFF;stroke-width:0.8"
       d="M 1.2271634,126.55843 C 1.0001954,126.19119 0.72445444,110.9606 0.61440344,92.712688 0.46561548,68.041605 0.67139344,58.611602 1.4169624,55.934654 c 1.104073,-3.964156 4.564365,-10.4 5.591653,-10.4 0.3587676,0 0.8695356,-2.069999 1.1350316,-4.599999 1.198416,-11.420052 7.18892,-28.661771 11.534112,-33.1971712 2.234392,-2.332207 6.297268,-2.996661 7.987608,-1.306319 0.66201,0.662012 1.04318,-0.08159 1.45726,-2.842895 0.48272,-3.21894992 0.79764,-3.70559592 2.26272,-3.49650792 1.43747,0.205147 1.79419,0.98440492 2.29538,5.01431092 0.32638,2.62428 1.18106,6.5406572 1.8993,8.7030582 1.11338,3.352103 1.76304,4.11122 4.40735,5.149935 3.83278,1.505559 4.02942,3.478413 0.50148,5.031216 -3.10642,1.36727 -3.20591,2.701455 -1.06425,14.271583 1.07236,5.793324 1.92398,8.188954 3.69705,10.4 4.98823,6.22038 5.03776,6.667754 4.83513,43.672783 -0.10119,18.479992 -0.47963,33.903752 -0.84098,34.275022 -0.36135,0.37126 -1.32524,0.54657 -2.14198,0.38957 l -1.48497,-0.28545 -0.4,-35.750422 c -0.30311,-27.090768 -0.64223,-35.992443 -1.4,-36.749569 -0.79987,-0.799187 -1.00191,-0.286686 -1.0095,2.560855 -0.0277,10.376311 -6.77316,23.442086 -13.197,25.562142 -3.90167,1.287664 -6.920398,0.402128 -10.383782,-3.046072 -4.966904,-4.945119 -9.20972,-15.481789 -9.20972,-22.871546 0,-2.334074 -0.9132316,-3.724202 -1.7635756,-2.684524 -0.08997,0.11 -0.359968,16.579999 -0.6,36.599994 l -0.436424,36.399992 -1.724512,0.24575 c -0.948482,0.13516 -1.910213,-0.0547 -2.13718,-0.42196 z M 28.660257,76.134653 c 4.52397,-4.549488 6.62341,-10.87144 7.05133,-21.233246 0.4102,-9.932627 -0.44707,-20.309015 -1.46784,-17.766752 -0.35334,0.88 -0.66774,2.551484 -0.69866,3.714408 -0.0574,2.158839 -1.55418,3.35658 -3.01366,2.411576 -0.44678,-0.289292 -1.06986,-2.865984 -1.38461,-5.725984 -0.89313,-8.115318 -3.49239,-13.029551 -7.257962,-13.722085 -0.896136,-0.16481 -1.70708,-1.041428 -1.8434,-1.992697 -0.181944,-1.269548 0.35864,-1.908311 2.140752,-2.529559 4.36086,-1.520201 6.22077,-6.502232 3.14948,-8.43628 -2.10556,-1.325909 -4.28572,1.242034 -6.953456,8.190248 -4.829672,12.579052 -7.344344,30.393956 -5.715448,40.490372 1.55084,9.612567 7.39712,19.599998 11.47312,19.599998 0.845456,0 2.879614,-1.35 4.520354,-2.999999 z m 4.78601,-51.731084 1.6879,-2.731086 -1.94515,-2.866342 -1.94515,-2.866343 -1.65052,2.797429 -1.65053,2.797429 1.65204,2.8 c 0.90862,1.54 1.76712,2.799999 1.90777,2.799999 0.14065,0 1.01529,-1.228988 1.94364,-2.731086 z m -22.215756,88.151681 0.258344,-1.82061 h 12.4 12.400002 v 1.6 1.6 l -12.658346,0.22061 -12.658336,0.22062 z M 16.968703,105.91 c -0.88012,-2.29354 0.930336,-2.84289 8.591874,-2.60708 l 7.52828,0.23172 v 1.6 1.6 l -7.81393,0.22914 c -6.57072,0.19268 -7.892248,0.025 -8.306224,-1.05378 z"
       id="path296"
       clip-path="none" />
  </g>
</svg>
